# Blender 3.3.1
# www.blender.org
mtllib Rkata.mtl
o çƒ.002
v 0.144743 0.390840 0.262905
v 0.084979 0.361858 0.316835
v 0.022463 0.320236 0.359082
v -0.040400 0.267575 0.388021
v -0.101197 0.205898 0.402542
v -0.157589 0.137575 0.402084
v -0.207410 0.065232 0.386668
v -0.248746 -0.008352 0.356884
v -0.280008 -0.080347 0.313877
v -0.394067 0.026938 0.003278
v 0.194566 0.358624 0.277646
v 0.182710 0.298663 0.345751
v 0.164348 0.228491 0.401061
v 0.140184 0.150806 0.441450
v 0.111149 0.068592 0.465368
v 0.078356 -0.014992 0.471893
v 0.043068 -0.096732 0.460776
v 0.006639 -0.173489 0.432444
v -0.029529 -0.242311 0.387985
v -0.190129 -0.537609 0.167826
v -0.146996 -0.456512 0.223001
v -0.103863 -0.375414 0.278177
v -0.333214 -0.227112 0.210320
v -0.369203 -0.312829 0.157257
v -0.405192 -0.398546 0.104195
v 0.245162 0.350001 0.244430
v 0.281958 0.281748 0.280596
v 0.308432 0.203935 0.306471
v 0.323569 0.119552 0.321060
v 0.326786 0.031841 0.323803
v 0.317960 -0.055827 0.314595
v 0.297430 -0.140083 0.293790
v 0.265985 -0.217689 0.262186
v 0.224833 -0.285662 0.220999
v -0.291162 0.121754 -0.288983
v 0.266892 0.370023 0.182715
v 0.324582 0.321022 0.159537
v 0.370314 0.260952 0.130721
v 0.402330 0.192121 0.097373
v 0.419399 0.117173 0.060775
v 0.420866 0.038989 0.022334
v 0.406674 -0.039426 -0.016473
v 0.377369 -0.115060 -0.054155
v 0.334076 -0.185005 -0.089264
v -0.051558 0.080919 -0.446281
v 0.247027 0.406961 0.128652
v 0.285616 0.393479 0.053490
v 0.313743 0.366143 -0.023237
v 0.330329 0.326004 -0.098578
v 0.334735 0.274603 -0.169638
v 0.326792 0.213915 -0.233688
v 0.306806 0.146274 -0.288264
v 0.275544 0.074279 -0.331271
v 0.234209 0.000695 -0.361055
v 0.184387 -0.071648 -0.376472
v 0.197204 0.439177 0.113911
v 0.187884 0.456674 0.024574
v 0.171859 0.457889 -0.065216
v 0.149744 0.442773 -0.152007
v 0.122390 0.411909 -0.232464
v 0.090847 0.366482 -0.303496
v 0.056328 0.308238 -0.362373
v 0.020159 0.239416 -0.406831
v -0.016270 0.162659 -0.435164
v 0.278461 -0.246574 -0.120450
v 0.122067 -0.488406 -0.241945
v 0.175570 -0.405674 -0.200381
v 0.229073 -0.322942 -0.158817
v 0.129044 -0.415108 0.125276
v 0.146608 0.447800 0.147127
v 0.088637 0.473589 0.089729
v 0.027774 0.482445 0.029374
v -0.033641 0.474027 -0.031616
v -0.093248 0.448660 -0.090900
v -0.148757 0.407318 -0.146199
v -0.198034 0.351589 -0.195387
v -0.239186 0.283616 -0.236574
v -0.270632 0.206010 -0.268177
v 0.175555 -0.341391 0.171811
v 0.078656 -0.494970 0.074863
v 0.028269 -0.574831 0.024449
v -0.064049 -0.300555 0.329109
v 0.199460 0.406070 0.199363
v 0.124878 0.427779 0.208842
v 0.046012 0.434315 0.210787
v -0.034107 0.425428 0.205124
v -0.112401 0.401458 0.192071
v -0.185860 0.363327 0.172128
v -0.251662 0.312501 0.146062
v -0.307278 0.250932 0.114876
v -0.350570 0.180987 0.079767
v -0.379876 0.105353 0.042085
v -0.299994 -0.147988 0.259300
v -0.280008 -0.080347 0.313877
v -0.299994 -0.147988 0.259300
v -0.029529 -0.242311 0.387985
v -0.064049 -0.300555 0.329109
v 0.224833 -0.285662 0.220999
v 0.175555 -0.341391 0.171811
v 0.334076 -0.185005 -0.089264
v 0.278461 -0.246574 -0.120450
v 0.234209 0.000695 -0.361055
v 0.184387 -0.071648 -0.376472
v -0.016270 0.162659 -0.435164
v -0.051558 0.080919 -0.446281
v -0.270632 0.206010 -0.268177
v -0.291162 0.121754 -0.288983
v -0.379876 0.105353 0.042085
v -0.394067 0.026938 0.003278
v 0.036319 -0.328962 -0.475308
v 0.086974 -0.240933 -0.441496
v 0.137629 -0.152905 -0.407683
v -0.091722 -0.004602 -0.475541
v -0.135233 -0.097250 -0.507240
v -0.178744 -0.189898 -0.538938
v -0.397142 -0.152676 -0.395562
v -0.360885 -0.058792 -0.359101
v -0.324629 0.035092 -0.322640
v -0.424659 -0.057075 -0.038547
v -0.457799 -0.148088 -0.083857
v -0.490939 -0.239101 -0.129168
v -0.407685 -0.214951 -0.412028
v 0.022406 -0.393686 -0.475030
v -0.412924 -0.415566 0.093976
v 0.017166 -0.594301 0.030974
v -0.191555 -0.262770 -0.548326
v -0.198964 -0.546483 0.167272
v 0.108861 -0.531011 -0.235076
v -0.499380 -0.278241 -0.145978
v -0.203198 -0.428169 -0.570512
v -0.204078 -0.546772 0.170648
v 0.098966 -0.617738 -0.216779
v -0.506241 -0.357204 -0.183085
v -0.417299 -0.353426 -0.450059
v 0.010646 -0.537651 -0.473884
v -0.417922 -0.437291 0.074020
v 0.010024 -0.621516 0.050195
vn -0.7415 0.3951 0.5424
vn -0.8302 0.2686 0.4886
vn 0.3016 0.8352 0.4599
vn -0.8960 0.1366 0.4226
vn 0.0827 0.8367 0.5413
vn -0.1301 0.7958 0.5915
vn -0.3230 0.7219 0.6119
vn 0.8120 -0.5751 0.0994
vn -0.4896 0.6256 0.6074
vn -0.6286 0.5149 0.5828
vn -0.1899 0.1503 0.9702
vn -0.2874 -0.0062 0.9578
vn -0.3737 -0.1599 0.9137
vn 0.3612 0.7873 0.4997
vn -0.4473 -0.3075 0.8399
vn 0.2580 0.7024 0.6634
vn 0.1454 0.5887 0.7952
vn 0.0299 0.4537 0.8906
vn -0.0832 0.3053 0.9486
vn 0.5462 0.4257 0.7214
vn -0.4545 -0.3230 0.8301
vn 0.5611 0.2377 0.7929
vn 0.5537 0.0463 0.8314
vn 0.5264 -0.1411 0.8385
vn 0.4816 -0.3189 0.8163
vn 0.4214 -0.4833 0.7674
vn 0.4461 0.7527 0.4841
vn 0.3478 -0.6308 0.6936
vn 0.5077 0.6009 0.6174
vn 0.9294 -0.2845 0.2350
vn 0.8864 -0.4295 0.1728
vn 0.5062 0.7520 0.4222
vn 0.8206 -0.5615 0.1068
vn 0.6784 0.5945 0.4317
vn 0.8081 0.4142 0.4189
vn 0.8931 0.2273 0.3882
vn 0.3649 0.1434 -0.9199
vn 0.9376 0.0452 0.3448
vn 0.9478 -0.1262 0.2928
vn 0.8133 0.5743 0.0935
vn 0.8999 0.4348 -0.0336
vn 0.9456 0.2887 -0.1502
vn 0.9566 0.1428 -0.2539
vn 0.9388 0.0006 -0.3445
vn 0.8960 -0.1366 -0.4226
vn 0.5074 0.7869 0.3512
vn 0.8302 -0.2686 -0.4886
vn 0.6817 0.6961 0.2251
vn 0.5066 0.4458 -0.7380
vn 0.4473 0.3075 -0.8399
vn 0.4489 0.8372 0.3125
vn 0.3737 0.1599 -0.9137
vn 0.5159 0.8493 0.1125
vn -0.8922 0.4143 -0.1797
vn 0.5592 0.8243 -0.0887
vn 0.5783 0.7660 -0.2808
vn 0.5745 0.6797 -0.4561
vn 0.5497 0.5713 -0.6095
vn 0.0472 0.9820 -0.1830
vn -0.0625 0.9388 -0.3389
vn -0.1666 0.8626 -0.4777
vn -0.2623 0.7585 -0.5965
vn -0.3478 0.6308 -0.6936
vn 0.3640 0.8717 0.3281
vn -0.4214 0.4833 -0.7674
vn 0.2661 0.9508 0.1585
vn 0.1585 0.9873 -0.0149
vn -0.8206 0.5615 -0.1068
vn 0.3027 0.8701 0.3889
vn -0.8864 0.4295 -0.1728
vn 0.0860 0.9384 0.3347
vn -0.1248 0.9558 0.2661
vn -0.3162 0.9294 0.1902
vn -0.4816 0.8691 0.1124
vn -0.6198 0.7839 0.0361
vn -0.7321 0.6801 -0.0371
vn -0.9388 -0.0006 0.3445
vn -0.5066 -0.4458 0.7380
vn 0.2623 -0.7585 0.5965
vn 0.7321 -0.6801 0.0371
vn 0.7415 -0.3951 -0.5424
vn 0.2874 0.0062 -0.9578
vn -0.4816 0.3189 -0.8163
vn -0.9294 0.2845 -0.2350
vn 0.8216 -0.2827 -0.4950
vn -0.4287 0.4661 -0.7739
vn 0.3391 -0.6458 0.6841
vn -0.9018 0.1219 0.4147
vn 0.9358 -0.2500 0.2484
vn -0.1985 0.1371 0.9705
vn 0.3216 0.0652 -0.9446
vn -0.9393 0.2270 -0.2571
vn 0.8726 -0.1895 -0.4501
vn -0.4874 0.2994 -0.8202
vn 0.5450 -0.0300 0.8379
vn -0.8914 0.1477 0.4285
vn 0.9476 -0.0413 0.3168
vn 0.3039 0.7926 0.5285
vn 0.3753 0.0972 -0.9218
vn -0.9386 0.2101 -0.2735
vn 0.9228 -0.0784 -0.3773
vn -0.4721 0.2638 -0.8412
vn 0.5521 0.3794 0.7424
vn -0.9499 -0.0628 0.3063
vn -0.3980 -0.9058 -0.1454
vn -0.1301 0.7957 0.5915
vn 0.2580 0.7024 0.6633
vn 0.8080 0.4142 0.4189
vn 0.8785 -0.4341 0.1995
vn -0.4646 -0.2911 0.8363
vn 0.2871 -0.0658 -0.9556
vn -0.9207 0.3038 -0.2450
vn 0.8124 -0.3294 -0.4812
vn -0.4917 0.1957 -0.8485
vn 0.4027 -0.4507 0.7967
vn -0.9312 0.0455 0.3616
vn 0.9485 -0.0260 0.3156
vn -0.5547 -0.4901 0.6724
vn 0.3946 -0.0395 -0.9180
vn -0.9386 0.1505 -0.3106
vn 0.9112 -0.1820 -0.3697
vn -0.4446 0.1498 -0.8831
vn 0.5322 0.1978 0.8232
vn -0.9497 -0.0617 0.3070
vt 0.625000 0.937500
vt 0.625000 0.875000
vt 0.625000 0.812500
vt 0.625000 0.750000
vt 0.625000 0.687500
vt 0.625000 0.625000
vt 0.625000 0.562500
vt 0.625000 0.500000
vt 0.625000 0.437500
vt 0.750000 0.375000
vt 0.500000 0.937500
vt 0.500000 0.875000
vt 0.500000 0.812500
vt 0.500000 0.750000
vt 0.500000 0.687500
vt 0.500000 0.625000
vt 0.500000 0.562500
vt 0.500000 0.500000
vt 0.500000 0.437500
vt 0.500000 0.375000
vt 0.500000 0.375000
vt 0.500000 0.375000
vt 0.625000 0.375000
vt 0.625000 0.375000
vt 0.625000 0.375000
vt 0.375000 0.937500
vt 0.375000 0.875000
vt 0.375000 0.812500
vt 0.375000 0.750000
vt 0.375000 0.687500
vt 0.375000 0.625000
vt 0.375000 0.562500
vt 0.375000 0.500000
vt 0.375000 0.437500
vt 0.875000 0.375000
vt 0.250000 0.937500
vt 0.250000 0.875000
vt 0.250000 0.812500
vt 0.250000 0.750000
vt 0.250000 0.687500
vt 0.250000 0.625000
vt 0.250000 0.562500
vt 0.250000 0.500000
vt 0.250000 0.437500
vt 1.000000 0.375000
vt 0.000000 0.375000
vt 0.125000 0.937500
vt 0.125000 0.875000
vt 0.125000 0.812500
vt 0.125000 0.750000
vt 0.125000 0.687500
vt 0.125000 0.625000
vt 0.125000 0.562500
vt 0.125000 0.500000
vt 0.125000 0.437500
vt 0.125000 0.375000
vt 0.000000 0.937500
vt 1.000000 0.937500
vt 1.000000 0.875000
vt 0.000000 0.875000
vt 0.000000 0.812500
vt 1.000000 0.812500
vt 0.000000 0.750000
vt 1.000000 0.750000
vt 0.000000 0.687500
vt 1.000000 0.687500
vt 0.000000 0.625000
vt 1.000000 0.625000
vt 0.000000 0.562500
vt 1.000000 0.562500
vt 0.000000 0.500000
vt 1.000000 0.500000
vt 0.000000 0.437500
vt 1.000000 0.437500
vt 0.250000 0.375000
vt 0.250000 0.375000
vt 0.250000 0.375000
vt 0.250000 0.375000
vt 0.375000 0.375000
vt 0.875000 0.937500
vt 0.875000 0.875000
vt 0.875000 0.812500
vt 0.875000 0.750000
vt 0.875000 0.687500
vt 0.875000 0.625000
vt 0.875000 0.562500
vt 0.875000 0.500000
vt 0.875000 0.437500
vt 0.375000 0.375000
vt 0.375000 0.375000
vt 0.375000 0.375000
vt 0.500000 0.375000
vt 0.687500 1.000000
vt 0.562500 1.000000
vt 0.437500 1.000000
vt 0.312500 1.000000
vt 0.187500 1.000000
vt 0.062500 1.000000
vt 0.937500 1.000000
vt 0.812500 1.000000
vt 0.750000 0.937500
vt 0.750000 0.875000
vt 0.750000 0.812500
vt 0.750000 0.750000
vt 0.750000 0.687500
vt 0.750000 0.625000
vt 0.750000 0.562500
vt 0.750000 0.500000
vt 0.750000 0.437500
vt 0.625000 0.375000
vt 0.625000 0.437500
vt 0.625000 0.375000
vt 0.500000 0.437500
vt 0.500000 0.375000
vt 0.375000 0.437500
vt 0.375000 0.375000
vt 0.250000 0.437500
vt 0.250000 0.375000
vt 0.125000 0.437500
vt 0.125000 0.375000
vt 1.000000 0.437500
vt 0.000000 0.437500
vt 0.000000 0.375000
vt 1.000000 0.375000
vt 0.875000 0.437500
vt 0.875000 0.375000
vt 0.750000 0.437500
vt 0.750000 0.375000
vt 0.125000 0.375000
vt 0.125000 0.375000
vt 0.125000 0.375000
vt 0.000000 0.375000
vt 1.000000 0.375000
vt 0.000000 0.375000
vt 1.000000 0.375000
vt 0.000000 0.375000
vt 1.000000 0.375000
vt 0.875000 0.375000
vt 0.875000 0.375000
vt 0.875000 0.375000
vt 0.750000 0.375000
vt 0.750000 0.375000
vt 0.750000 0.375000
vt 0.875000 0.375000
vt 0.125000 0.375000
vt 0.625000 0.375000
vt 0.375000 0.375000
vt 0.000000 0.375000
vt 1.000000 0.375000
vt 0.500000 0.375000
vt 0.250000 0.375000
vt 0.750000 0.375000
vt 0.000000 0.375000
vt 1.000000 0.375000
vt 0.500000 0.375000
vt 0.250000 0.375000
vt 0.750000 0.375000
vt 0.875000 0.375000
vt 0.125000 0.375000
vt 0.625000 0.375000
vt 0.375000 0.375000
s 0
usemtl blue
f 7/7/1 89/106/1 90/107/1
f 8/8/2 90/107/2 91/108/2
f 84/101/3 1/1/3 83/93/3
f 9/9/4 91/108/4 92/109/4
f 85/102/5 1/1/5 84/101/5
f 86/103/6 2/2/6 85/102/6
f 87/104/7 3/3/7 86/103/7
f 80/90/8 66/76/8 67/77/8
f 5/5/9 87/104/9 88/105/9
f 69/79/8 67/77/8 68/78/8
f 6/6/10 88/105/10 89/106/10
f 79/89/8 68/78/8 65/75/8
f 16/16/11 5/5/11 6/6/11
f 17/17/12 6/6/12 7/7/12
f 18/18/13 7/7/13 8/8/13
f 1/1/14 11/11/14 83/94/14
f 19/19/15 8/8/15 9/9/15
f 2/2/16 11/11/16 1/1/16
f 13/13/17 2/2/17 3/3/17
f 14/14/18 3/3/18 4/4/18
f 15/15/19 4/4/19 5/5/19
f 28/28/20 12/12/20 13/13/20
f 24/24/21 20/20/21 21/21/21
f 29/29/22 13/13/22 14/14/22
f 23/23/21 21/21/21 22/22/21
f 30/30/23 14/14/23 15/15/23
f 93/110/21 22/22/21 82/92/21
f 31/31/24 15/15/24 16/16/24
f 32/32/25 16/16/25 17/17/25
f 33/33/26 17/17/26 18/18/26
f 11/11/27 26/26/27 83/95/27
f 34/34/28 18/18/28 19/19/28
f 27/27/29 11/11/29 12/12/29
f 42/42/30 31/31/30 32/32/30
f 43/43/31 32/32/31 33/33/31
f 26/26/32 36/36/32 83/96/32
f 44/44/33 33/33/33 34/34/33
f 37/37/34 26/26/34 27/27/34
f 38/38/35 27/27/35 28/28/35
f 39/39/36 28/28/36 29/29/36
f 110/129/37 114/134/37 111/130/37
f 40/40/38 29/29/38 30/30/38
f 111/130/37 113/132/37 112/131/37
f 41/41/39 30/30/39 31/31/39
f 38/38/40 47/48/40 37/37/40
f 112/131/37 45/46/37 55/56/37
f 39/39/41 48/49/41 38/38/41
f 40/40/42 49/50/42 39/39/42
f 41/41/43 50/51/43 40/40/43
f 42/42/44 51/52/44 41/41/44
f 43/43/45 52/53/45 42/42/45
f 36/36/46 46/47/46 83/97/46
f 44/44/47 53/54/47 43/43/47
f 37/37/48 46/47/48 36/36/48
f 52/53/49 61/67/49 51/52/49
f 53/54/50 62/69/50 52/53/50
f 46/47/51 56/57/51 83/98/51
f 54/55/52 63/71/52 53/54/52
f 47/48/53 56/57/53 46/47/53
f 116/138/54 120/142/54 117/139/54
f 48/49/55 57/60/55 47/48/55
f 117/139/54 119/141/54 118/140/54
f 49/50/56 58/61/56 48/49/56
f 118/140/54 10/10/54 35/35/54
f 50/51/57 59/63/57 49/50/57
f 51/52/58 60/65/58 50/51/58
f 59/64/59 72/82/59 58/62/59
f 60/66/60 73/83/60 59/64/60
f 61/68/61 74/84/61 60/66/61
f 62/70/62 75/85/62 61/68/62
f 63/72/63 76/86/63 62/70/63
f 56/58/64 70/80/64 83/99/64
f 64/74/65 77/87/65 63/72/65
f 71/81/66 56/58/66 57/59/66
f 58/62/67 71/81/67 57/59/67
f 77/87/68 90/107/68 76/86/68
f 70/80/69 84/101/69 83/100/69
f 78/88/70 91/108/70 77/87/70
f 85/102/71 70/80/71 71/81/71
f 86/103/72 71/81/72 72/82/72
f 73/83/73 86/103/73 72/82/73
f 74/84/74 87/104/74 73/83/74
f 75/85/75 88/105/75 74/84/75
f 76/86/76 89/106/76 75/85/76
f 95/112/77 108/127/77 109/128/77
f 97/114/78 94/111/78 95/112/78
f 99/116/79 96/113/79 97/114/79
f 101/118/80 98/115/80 99/116/80
f 101/118/81 102/119/81 100/117/81
f 103/120/82 104/122/82 102/119/82
f 105/124/83 106/125/83 104/121/83
f 107/126/84 108/127/84 106/125/84
f 68/78/85 55/56/85 65/75/85
f 67/77/85 112/131/85 68/78/85
f 66/76/85 111/130/85 67/77/85
f 113/133/86 35/35/86 45/45/86
f 114/135/86 118/140/86 113/133/86
f 115/137/86 117/139/86 114/135/86
f 82/92/87 69/79/87 79/89/87
f 22/22/87 80/90/87 69/79/87
f 21/21/87 81/91/87 80/90/87
f 10/10/88 23/23/88 93/110/88
f 119/141/88 24/24/88 23/23/88
f 120/142/88 25/25/88 24/24/88
f 81/91/89 128/151/89 66/76/89
f 25/25/90 127/150/90 20/20/90
f 110/129/91 126/148/91 115/136/91
f 122/144/92 121/143/92 116/138/92
f 66/76/93 123/145/93 110/129/93
f 115/137/94 122/144/94 116/138/94
f 20/20/95 125/147/95 81/91/95
f 121/143/96 124/146/96 25/25/96
f 125/147/97 132/156/97 128/151/97
f 124/146/98 131/155/98 127/150/98
f 123/145/99 130/153/99 126/148/99
f 122/144/100 133/157/100 129/152/100
f 128/151/101 135/159/101 123/145/101
f 126/149/102 134/158/102 122/144/102
f 127/150/103 137/161/103 125/147/103
f 129/152/104 136/160/104 124/146/104
f 133/157/105 130/154/105 132/156/105
f 7/7/1 6/6/1 89/106/1
f 8/8/2 7/7/2 90/107/2
f 9/9/4 8/8/4 91/108/4
f 85/102/5 2/2/5 1/1/5
f 86/103/106 3/3/106 2/2/106
f 87/104/7 4/4/7 3/3/7
f 80/90/8 81/91/8 66/76/8
f 5/5/9 4/4/9 87/104/9
f 69/79/8 80/90/8 67/77/8
f 6/6/10 5/5/10 88/105/10
f 79/89/8 69/79/8 68/78/8
f 16/16/11 15/15/11 5/5/11
f 17/17/12 16/16/12 6/6/12
f 18/18/13 17/17/13 7/7/13
f 19/19/15 18/18/15 8/8/15
f 2/2/107 12/12/107 11/11/107
f 13/13/17 12/12/17 2/2/17
f 14/14/18 13/13/18 3/3/18
f 15/15/19 14/14/19 4/4/19
f 28/28/20 27/27/20 12/12/20
f 24/24/21 25/25/21 20/20/21
f 29/29/22 28/28/22 13/13/22
f 23/23/21 24/24/21 21/21/21
f 30/30/23 29/29/23 14/14/23
f 93/110/21 23/23/21 22/22/21
f 31/31/24 30/30/24 15/15/24
f 32/32/25 31/31/25 16/16/25
f 33/33/26 32/32/26 17/17/26
f 34/34/28 33/33/28 18/18/28
f 27/27/29 26/26/29 11/11/29
f 42/42/30 41/41/30 31/31/30
f 43/43/31 42/42/31 32/32/31
f 44/44/33 43/43/33 33/33/33
f 37/37/34 36/36/34 26/26/34
f 38/38/108 37/37/108 27/27/108
f 39/39/36 38/38/36 28/28/36
f 110/129/37 115/136/37 114/134/37
f 40/40/38 39/39/38 29/29/38
f 111/130/37 114/134/37 113/132/37
f 41/41/39 40/40/39 30/30/39
f 38/38/40 48/49/40 47/48/40
f 112/131/37 113/132/37 45/46/37
f 39/39/41 49/50/41 48/49/41
f 40/40/42 50/51/42 49/50/42
f 41/41/43 51/52/43 50/51/43
f 42/42/44 52/53/44 51/52/44
f 43/43/45 53/54/45 52/53/45
f 44/44/47 54/55/47 53/54/47
f 37/37/48 47/48/48 46/47/48
f 52/53/49 62/69/49 61/67/49
f 53/54/50 63/71/50 62/69/50
f 54/55/52 64/73/52 63/71/52
f 47/48/53 57/60/53 56/57/53
f 116/138/54 121/143/54 120/142/54
f 48/49/55 58/61/55 57/60/55
f 117/139/54 120/142/54 119/141/54
f 49/50/56 59/63/56 58/61/56
f 118/140/54 119/141/54 10/10/54
f 50/51/57 60/65/57 59/63/57
f 51/52/58 61/67/58 60/65/58
f 59/64/59 73/83/59 72/82/59
f 60/66/60 74/84/60 73/83/60
f 61/68/61 75/85/61 74/84/61
f 62/70/62 76/86/62 75/85/62
f 63/72/63 77/87/63 76/86/63
f 64/74/65 78/88/65 77/87/65
f 71/81/66 70/80/66 56/58/66
f 58/62/67 72/82/67 71/81/67
f 77/87/68 91/108/68 90/107/68
f 78/88/70 92/109/70 91/108/70
f 85/102/71 84/101/71 70/80/71
f 86/103/72 85/102/72 71/81/72
f 73/83/73 87/104/73 86/103/73
f 74/84/74 88/105/74 87/104/74
f 75/85/75 89/106/75 88/105/75
f 76/86/76 90/107/76 89/106/76
f 95/112/77 94/111/77 108/127/77
f 97/114/78 96/113/78 94/111/78
f 99/116/79 98/115/79 96/113/79
f 101/118/80 100/117/80 98/115/80
f 101/118/81 103/120/81 102/119/81
f 103/120/82 105/123/82 104/122/82
f 105/124/83 107/126/83 106/125/83
f 107/126/84 109/128/84 108/127/84
f 68/78/85 112/131/85 55/56/85
f 67/77/85 111/130/85 112/131/85
f 66/76/85 110/129/85 111/130/85
f 113/133/86 118/140/86 35/35/86
f 114/135/86 117/139/86 118/140/86
f 115/137/86 116/138/86 117/139/86
f 82/92/87 22/22/87 69/79/87
f 22/22/87 21/21/87 80/90/87
f 21/21/87 20/20/87 81/91/87
f 10/10/88 119/141/88 23/23/88
f 119/141/88 120/142/88 24/24/88
f 120/142/88 121/143/88 25/25/88
f 81/91/109 125/147/109 128/151/109
f 25/25/110 124/146/110 127/150/110
f 110/129/111 123/145/111 126/148/111
f 122/144/112 129/152/112 121/143/112
f 66/76/113 128/151/113 123/145/113
f 115/137/114 126/149/114 122/144/114
f 20/20/115 127/150/115 125/147/115
f 121/143/116 129/152/116 124/146/116
f 125/147/117 137/161/117 132/156/117
f 124/146/118 136/160/118 131/155/118
f 123/145/119 135/159/119 130/153/119
f 122/144/120 134/158/120 133/157/120
f 128/151/121 132/156/121 135/159/121
f 126/149/122 130/154/122 134/158/122
f 127/150/123 131/155/123 137/161/123
f 129/152/124 133/157/124 136/160/124
f 132/156/105 137/161/105 131/155/105
f 131/155/105 136/160/105 133/157/105
f 133/157/105 134/158/105 130/154/105
f 130/154/105 135/159/105 132/156/105
f 132/156/105 131/155/105 133/157/105
